<?xml version="1.0" encoding="UTF-8"?>
<!DOCTYPE svg PUBLIC "-//W3C//DTD SVG 1.1//EN" "http://www.w3.org/Graphics/SVG/1.1/DTD/svg11.dtd">
<svg version="1.2" width="101.6mm" height="69.85mm" viewBox="0 0 10160 6985" preserveAspectRatio="xMidYMid" fill-rule="evenodd" stroke-width="28.222" stroke-linejoin="round" xmlns="http://www.w3.org/2000/svg" xmlns:ooo="http://xml.openoffice.org/svg/export" xmlns:xlink="http://www.w3.org/1999/xlink" xmlns:presentation="http://sun.com/xmlns/staroffice/presentation" xmlns:smil="http://www.w3.org/2001/SMIL20/" xmlns:anim="urn:oasis:names:tc:opendocument:xmlns:animation:1.0" xml:space="preserve">
 <defs class="ClipPathGroup">
  <clipPath id="presentation_clip_path" clipPathUnits="userSpaceOnUse">
   <rect x="0" y="0" width="10160" height="6985"/>
  </clipPath>
  <clipPath id="presentation_clip_path_shrink" clipPathUnits="userSpaceOnUse">
   <rect x="10" y="6" width="10140" height="6972"/>
  </clipPath>
 </defs>
 <defs class="TextShapeIndex">
  <g ooo:slide="id1" ooo:id-list="id3 id4 id5 id6 id7"/>
 </defs>
 <defs class="EmbeddedBulletChars">
  <g id="bullet-char-template-57356" transform="scale(0.00048828125,-0.00048828125)">
   <path d="M 580,1141 L 1163,571 580,0 -4,571 580,1141 Z"/>
  </g>
  <g id="bullet-char-template-57354" transform="scale(0.00048828125,-0.00048828125)">
   <path d="M 8,1128 L 1137,1128 1137,0 8,0 8,1128 Z"/>
  </g>
  <g id="bullet-char-template-10146" transform="scale(0.00048828125,-0.00048828125)">
   <path d="M 174,0 L 602,739 174,1481 1456,739 174,0 Z M 1358,739 L 309,1346 659,739 1358,739 Z"/>
  </g>
  <g id="bullet-char-template-10132" transform="scale(0.00048828125,-0.00048828125)">
   <path d="M 2015,739 L 1276,0 717,0 1260,543 174,543 174,936 1260,936 717,1481 1274,1481 2015,739 Z"/>
  </g>
  <g id="bullet-char-template-10007" transform="scale(0.00048828125,-0.00048828125)">
   <path d="M 0,-2 C -7,14 -16,27 -25,37 L 356,567 C 262,823 215,952 215,954 215,979 228,992 255,992 264,992 276,990 289,987 310,991 331,999 354,1012 L 381,999 492,748 772,1049 836,1024 860,1049 C 881,1039 901,1025 922,1006 886,937 835,863 770,784 769,783 710,716 594,584 L 774,223 C 774,196 753,168 711,139 L 727,119 C 717,90 699,76 672,76 641,76 570,178 457,381 L 164,-76 C 142,-110 111,-127 72,-127 30,-127 9,-110 8,-76 1,-67 -2,-52 -2,-32 -2,-23 -1,-13 0,-2 Z"/>
  </g>
  <g id="bullet-char-template-10004" transform="scale(0.00048828125,-0.00048828125)">
   <path d="M 285,-33 C 182,-33 111,30 74,156 52,228 41,333 41,471 41,549 55,616 82,672 116,743 169,778 240,778 293,778 328,747 346,684 L 369,508 C 377,444 397,411 428,410 L 1163,1116 C 1174,1127 1196,1133 1229,1133 1271,1133 1292,1118 1292,1087 L 1292,965 C 1292,929 1282,901 1262,881 L 442,47 C 390,-6 338,-33 285,-33 Z"/>
  </g>
  <g id="bullet-char-template-9679" transform="scale(0.00048828125,-0.00048828125)">
   <path d="M 813,0 C 632,0 489,54 383,161 276,268 223,411 223,592 223,773 276,916 383,1023 489,1130 632,1184 813,1184 992,1184 1136,1130 1245,1023 1353,916 1407,772 1407,592 1407,412 1353,268 1245,161 1136,54 992,0 813,0 Z"/>
  </g>
  <g id="bullet-char-template-8226" transform="scale(0.00048828125,-0.00048828125)">
   <path d="M 346,457 C 273,457 209,483 155,535 101,586 74,649 74,723 74,796 101,859 155,911 209,963 273,989 346,989 419,989 480,963 531,910 582,859 608,796 608,723 608,648 583,586 532,535 482,483 420,457 346,457 Z"/>
  </g>
  <g id="bullet-char-template-8211" transform="scale(0.00048828125,-0.00048828125)">
   <path d="M -4,459 L 1135,459 1135,606 -4,606 -4,459 Z"/>
  </g>
  <g id="bullet-char-template-61548" transform="scale(0.00048828125,-0.00048828125)">
   <path d="M 173,740 C 173,903 231,1043 346,1159 462,1274 601,1332 765,1332 928,1332 1067,1274 1183,1159 1299,1043 1357,903 1357,740 1357,577 1299,437 1183,322 1067,206 928,148 765,148 601,148 462,206 346,322 231,437 173,577 173,740 Z"/>
  </g>
 </defs>
 <g>
  <g id="id2" class="Master_Slide">
   <g id="bg-id2" class="Background"/>
   <g id="bo-id2" class="BackgroundObjects"/>
  </g>
 </g>
 <g class="SlideGroup">
  <g>
   <g id="container-id1">
    <g id="id1" class="Slide" clip-path="url(#presentation_clip_path)">
     <g class="Page">
      <g class="com.sun.star.drawing.PolyPolygonShape">
       <g id="id3">
        <rect class="BoundingBox" stroke="none" fill="none" x="5097" y="1474" width="3740" height="4399"/>
        <path fill="rgb(49,174,73)" stroke="none" d="M 7858,3392 L 7795,3620 7744,3849 7702,4079 7668,4310 7619,4773 7582,5237 7554,5760 7552,5772 7551,5783 7546,5808 7532,5872 7236,5550 6851,5113 6479,4665 6301,4435 6131,4199 5970,3957 5819,3707 5685,3460 5564,3209 5455,2954 5359,2694 5275,2429 5205,2160 5148,1887 5105,1610 5103,1593 5102,1572 5098,1507 5495,2135 5697,2441 5910,2736 6141,3016 6394,3276 6531,3397 6677,3512 6831,3619 6995,3718 7131,3357 7293,3019 7481,2703 7696,2410 7938,2140 8209,1894 8508,1672 8836,1475 8666,1689 8512,1912 8373,2142 8247,2379 8134,2623 8032,2873 7940,3130 7858,3392 Z"/>
       </g>
      </g>
      <g class="com.sun.star.drawing.PolyPolygonShape">
       <g id="id4">
        <rect class="BoundingBox" stroke="none" fill="none" x="5844" y="956" width="1546" height="1544"/>
        <path fill="rgb(180,199,220)" stroke="none" d="M 7205,1224 L 7257,1299 7300,1376 7334,1455 7360,1534 7378,1613 7388,1693 7389,1772 7382,1849 7367,1925 7345,1999 7314,2070 7276,2139 7229,2203 7176,2264 7114,2320 7046,2370 6975,2412 6902,2445 6827,2471 6751,2488 6674,2497 6597,2499 6521,2493 6446,2479 6372,2459 6300,2431 6232,2395 6166,2353 6105,2305 6048,2249 5997,2187 5951,2118 5917,2055 5889,1990 5869,1923 5854,1854 5846,1785 5844,1716 5848,1648 5859,1579 5875,1512 5897,1447 5925,1383 5959,1322 5998,1264 6043,1209 6093,1159 6149,1112 6211,1070 6274,1034 6340,1005 6407,983 6476,968 6545,958 6615,956 6685,960 6755,971 6824,988 6892,1011 6959,1041 7024,1077 7087,1120 7147,1169 7205,1224 Z"/>
       </g>
      </g>
      <g class="com.sun.star.drawing.ClosedBezierShape">
       <g id="id5">
        <rect class="BoundingBox" stroke="none" fill="none" x="348" y="662" width="9201" height="5907"/>
        <path fill="rgb(180,199,220)" stroke="none" d="M 916,802 C 1284,1181 1618,1799 1804,2445 1899,2768 1943,2989 1986,3361 2037,3775 2148,4997 2137,5009 2115,5029 1204,4559 1003,4426 705,4227 526,3998 523,3823 L 523,3762 461,3828 C 424,3862 383,3947 364,4015 209,4620 1201,5255 3272,5867 4498,6229 5183,6385 6131,6511 6588,6572 6654,6574 7342,6562 8093,6550 8355,6523 8747,6421 9430,6244 9679,5957 9483,5570 9406,5417 9156,5191 8935,5080 L 8861,5038 8916,5143 C 8992,5279 9008,5381 8979,5493 8875,5879 8083,6059 6768,5991 5797,5940 4793,5818 4229,5680 3873,5595 3185,5398 2684,5242 2430,5162 2413,5153 2442,5111 2459,5087 2713,4768 3006,4404 3875,3320 3989,3155 4251,2605 4414,2265 4527,1971 4649,1563 4733,1280 4869,715 4855,697 4850,695 4663,967 4438,1307 3946,2051 3677,2416 3447,2652 3258,2846 3025,3024 2890,3081 L 2805,3116 2713,2880 C 2582,2547 2306,2002 2134,1745 1967,1492 1625,1125 1395,955 1223,826 906,663 829,663 789,663 809,693 916,802 Z"/>
       </g>
      </g>
      <g class="com.sun.star.drawing.PolyPolygonShape">
       <g id="id6">
        <rect class="BoundingBox" stroke="none" fill="none" x="2141" y="4996" width="10" height="16"/>
        <path fill="rgb(0,0,0)" stroke="none" d="M 2150,4997 L 2150,4998 2150,4998 2149,4999 2149,5000 2149,5001 2149,5002 2148,5003 2148,5004 2147,5005 2147,5006 2146,5007 2145,5007 2144,5008 2144,5009 2143,5010 2142,5011 2141,5010 2141,5010 2141,5010 2141,5009 2141,5009 2141,5009 2141,5008 2141,5008 2142,5007 2142,5006 2143,5005 2143,5004 2145,5002 2147,5000 2150,4997 Z"/>
       </g>
      </g>
      <g class="com.sun.star.drawing.PolyPolygonShape">
       <g id="id7">
        <rect class="BoundingBox" stroke="none" fill="none" x="2335" y="348" width="1546" height="1544"/>
        <path fill="rgb(49,174,73)" stroke="none" d="M 3696,616 L 3748,691 3791,768 3825,847 3851,926 3869,1005 3879,1085 3880,1164 3873,1241 3858,1317 3836,1391 3805,1462 3767,1531 3720,1595 3667,1656 3605,1712 3537,1762 3466,1804 3393,1837 3318,1863 3242,1880 3165,1889 3088,1891 3012,1885 2937,1871 2863,1851 2791,1823 2723,1787 2657,1745 2596,1697 2539,1641 2488,1579 2442,1510 2408,1447 2380,1382 2360,1315 2345,1246 2337,1177 2335,1108 2339,1040 2350,971 2366,904 2388,839 2416,775 2450,714 2489,656 2534,601 2584,551 2640,504 2702,462 2765,426 2831,397 2898,375 2967,360 3036,350 3106,348 3176,352 3246,363 3315,380 3383,403 3450,433 3515,469 3578,512 3638,561 3696,616 Z"/>
       </g>
      </g>
     </g>
    </g>
   </g>
  </g>
 </g>
</svg>